<svg width="147" height="30" viewBox="0 0 147 30" fill="none" xmlns="http://www.w3.org/2000/svg">
<path fill-rule="evenodd" clip-rule="evenodd" d="M27.8333 15C27.8333 22.0877 22.0877 27.8333 15 27.8333C7.91234 27.8333 2.16666 22.0877 2.16666 15C2.16666 7.9123 7.91234 2.16666 15 2.16666C22.0877 2.16666 27.8333 7.9123 27.8333 15ZM30 15C30 23.2843 23.2843 30 15 30C6.71573 30 0 23.2843 0 15C0 6.71573 6.71573 0 15 0C23.2843 0 30 6.71573 30 15ZM23.2759 8.2759C23.2759 9.1329 22.5812 9.8276 21.7242 9.8276C20.8672 9.8276 20.1725 9.1329 20.1725 8.2759C20.1725 7.4189 20.8672 6.72418 21.7242 6.72418C22.5812 6.72418 23.2759 7.4189 23.2759 8.2759ZM10.4879 16.209C11.1556 18.7009 13.717 20.1797 16.2089 19.512C18.7008 18.8443 20.1796 16.2829 19.5119 13.791C18.8442 11.2991 16.2828 9.8203 13.7909 10.488C11.299 11.1557 9.82015 13.7171 10.4879 16.209ZM8.39503 16.7698C9.37244 20.4175 13.1219 22.5823 16.7696 21.6049C20.4174 20.6274 22.5821 16.878 21.6047 13.2302C20.6273 9.5825 16.8779 7.4177 13.2301 8.3952C9.58236 9.3726 7.41762 13.122 8.39503 16.7698Z" fill="url(#paint0_linear_1_10)"/>
<path d="M44.3982 14.4155C44.3738 14.8892 44.2811 15.3042 44.1199 15.6606C43.9539 16.0317 43.7317 16.3589 43.4534 16.6421C43.1751 16.9253 42.8553 17.167 42.4939 17.3672C42.1229 17.5723 41.7396 17.7358 41.344 17.8579C40.9339 17.9897 40.5115 18.0874 40.077 18.1509C39.6424 18.2095 39.2176 18.2388 38.8025 18.2388C38.5291 18.2388 38.2239 18.229 37.887 18.2095C37.5501 18.1899 37.1888 18.146 36.803 18.0776L36.8323 21.0146L35.2869 21.0732V10.7095C35.8045 10.5386 36.3001 10.4092 36.7737 10.3213C37.2522 10.2334 37.6746 10.1675 38.0408 10.1235C38.4754 10.0698 38.8782 10.0405 39.2493 10.0356C39.5813 10.0356 39.9329 10.0601 40.304 10.1089C40.6849 10.1577 41.0706 10.248 41.4612 10.3799C41.8519 10.5068 42.2303 10.6777 42.5965 10.8926C42.9578 11.1074 43.2776 11.376 43.556 11.6982C43.8294 12.0254 44.0442 12.4136 44.2005 12.8628C44.3567 13.3071 44.4227 13.8247 44.3982 14.4155ZM39.2493 11.6543C39.1126 11.6543 38.9734 11.6567 38.8318 11.6616C38.6902 11.6665 38.5486 11.6738 38.407 11.6836C38.158 11.7031 37.8895 11.7397 37.6014 11.7935C37.3133 11.8423 37.0325 11.9155 36.7591 12.0132L36.7884 16.5762C37.0911 16.6348 37.389 16.6738 37.6819 16.6934C37.9798 16.7129 38.2581 16.7227 38.5169 16.7227C38.8001 16.7227 39.0979 16.708 39.4104 16.6787C39.7278 16.6543 40.0428 16.6079 40.3553 16.5396C40.6678 16.4663 40.9681 16.3662 41.2562 16.2393C41.5345 16.1172 41.7884 15.9536 42.0179 15.7485C42.2376 15.5483 42.4134 15.3115 42.5452 15.0381C42.6771 14.7598 42.743 14.4326 42.743 14.0566C42.743 13.3145 42.428 12.731 41.7981 12.3062C41.1683 11.896 40.3187 11.6787 39.2493 11.6543ZM49.3421 20.3262C49.8841 20.3262 50.3821 20.165 50.8362 19.8428C51.2903 19.5156 51.5857 19.0615 51.7225 18.4805L53.136 18.7661C52.9993 19.2104 52.8064 19.6133 52.5574 19.9746C52.3084 20.3359 52.0179 20.646 51.6858 20.9048C51.3538 21.1636 50.9876 21.3638 50.5872 21.5054C50.1917 21.647 49.7767 21.7178 49.3421 21.7178C48.6976 21.7178 48.1263 21.6201 47.6282 21.4248C47.1302 21.2295 46.7103 20.9536 46.3685 20.5972C45.6702 19.8696 45.3211 18.8784 45.3211 17.6235C45.3211 17.0132 45.4236 16.4443 45.6287 15.917C45.8387 15.3848 46.1243 14.9233 46.4856 14.5327C46.847 14.1421 47.2718 13.8345 47.7601 13.6099C48.2483 13.3853 48.7757 13.2729 49.3421 13.2729C49.8499 13.2729 50.3284 13.373 50.7776 13.5732C51.2269 13.7686 51.6248 14.0396 51.9715 14.3862C52.3182 14.7378 52.6038 15.1504 52.8284 15.624C53.053 16.0977 53.1946 16.6104 53.2532 17.1621L46.9104 18.1069C46.9446 18.4536 47.0301 18.7661 47.1668 19.0444C47.3084 19.3179 47.4842 19.5498 47.6941 19.7402C48.1287 20.1309 48.678 20.3262 49.3421 20.3262ZM46.9544 16.752L51.3636 16.2173L51.3196 16.0781C51.1341 15.5947 50.8777 15.2163 50.5506 14.9429C50.2283 14.6694 49.8255 14.5327 49.3421 14.5327C49.137 14.5327 48.9124 14.5693 48.6683 14.6426C48.4241 14.7109 48.1873 14.8306 47.9578 15.0015C47.7283 15.1724 47.5208 15.4019 47.3353 15.6899C47.1546 15.9731 47.0276 16.3271 46.9544 16.752ZM56.7322 11.2368C56.7322 11.52 56.6321 11.7642 56.4319 11.9692C56.2317 12.1694 55.9876 12.2695 55.6995 12.2695C55.4163 12.2695 55.1697 12.1694 54.9598 11.9692C54.7498 11.7642 54.6448 11.52 54.6448 11.2368C54.6448 10.9487 54.7498 10.7021 54.9598 10.4971C55.1697 10.2871 55.4163 10.1821 55.6995 10.1821C55.9876 10.1821 56.2317 10.2871 56.4319 10.4971C56.6321 10.7021 56.7322 10.9487 56.7322 11.2368ZM54.8133 13.7856L56.3294 13.8442C56.3196 14.5962 56.3099 15.2798 56.3001 15.895C56.2952 16.5054 56.2928 17.0571 56.2928 17.5503C56.2928 17.8042 56.2903 18.0825 56.2854 18.3853C56.2806 18.6831 56.2757 18.9663 56.2708 19.2349C56.2708 19.4985 56.2708 19.7085 56.2708 19.8647C56.2659 20.1968 56.2635 20.4897 56.2635 20.7437C56.2635 20.9976 56.2635 21.2124 56.2635 21.3882C56.2586 21.5151 56.2513 21.647 56.2415 21.7837C56.2366 21.9253 56.2244 22.0718 56.2049 22.2231C56.1707 22.5161 56.0999 22.8066 55.9925 23.0947C55.8899 23.3877 55.7508 23.6685 55.575 23.937C55.3943 24.2056 55.16 24.4424 54.8719 24.6475C54.5838 24.8525 54.2347 25.0137 53.8245 25.1309C53.4192 25.2529 52.9383 25.3115 52.3816 25.3066L52.4695 23.6514C52.9773 23.7051 53.3924 23.627 53.7146 23.417C54.0369 23.207 54.2811 22.9312 54.4471 22.5894C54.618 22.2378 54.7205 21.8276 54.7547 21.3589C54.7596 21.1001 54.7645 20.8145 54.7693 20.502C54.7742 20.1846 54.7791 19.8403 54.784 19.4692C54.7938 18.8345 54.8011 18.0459 54.806 17.1035C54.8108 16.1611 54.8133 15.0552 54.8133 13.7856ZM65.7923 21.498L64.1224 21.5273L64.0931 19.4253C63.9319 19.7134 63.7488 19.9868 63.5438 20.2456C63.3387 20.4995 63.1165 20.7217 62.8772 20.9121C62.638 21.1074 62.3816 21.2612 62.1082 21.3735C61.8396 21.4858 61.5564 21.5371 61.2586 21.5273C60.8143 21.5127 60.4383 21.4297 60.1307 21.2783C59.8182 21.127 59.5521 20.9243 59.3323 20.6704C59.1175 20.4165 58.9466 20.126 58.8196 19.7988C58.6829 19.457 58.5828 19.1104 58.5193 18.7588C58.451 18.3926 58.4046 18.019 58.3802 17.6382C58.3606 17.2524 58.3509 16.8789 58.3509 16.5176C58.3509 16.0098 58.3729 15.4971 58.4168 14.9795C58.4607 14.457 58.5242 13.9248 58.6072 13.3828L60.1087 13.4268C60.0306 14.0322 59.9769 14.5767 59.9476 15.0601C59.9231 15.5435 59.9109 15.9683 59.9109 16.3345C59.9109 16.4175 59.9109 16.5127 59.9109 16.6201C59.9109 16.7227 59.9134 16.8374 59.9183 16.9644C59.9231 17.2183 59.9402 17.4893 59.9695 17.7773C60.0037 18.0605 60.055 18.3413 60.1233 18.6196C60.1868 18.8882 60.2845 19.1348 60.4163 19.3594C60.5433 19.5791 60.6995 19.7476 60.8851 19.8647C61.0755 19.9819 61.3099 20.021 61.5882 19.9819C61.9593 19.9331 62.3523 19.6743 62.7674 19.2056C63.1775 18.7368 63.6048 18.0239 64.0491 17.0669L64.0125 15.2065C64.0076 14.9771 64.0027 14.7744 63.9979 14.5986C63.993 14.418 63.9881 14.2666 63.9832 14.1445C63.9734 13.8516 63.9661 13.6514 63.9612 13.5439L65.5359 13.3682L65.6165 15.6387C65.6263 15.9805 65.636 16.3027 65.6458 16.6055C65.6556 16.9082 65.6653 17.1938 65.6751 17.4624C65.6849 17.7358 65.6946 18.0361 65.7044 18.3633C65.7142 18.6855 65.7239 18.9883 65.7337 19.2715C65.7435 19.5547 65.7508 19.7793 65.7557 19.9453C65.7654 20.292 65.7728 20.5947 65.7776 20.8535C65.7825 21.1123 65.7874 21.3271 65.7923 21.498ZM74.9988 21.7031L73.5633 21.4614L73.6658 20.4287C73.0701 20.8096 72.4842 21.0854 71.908 21.2563C71.3367 21.4272 70.8021 21.5127 70.304 21.5127C69.9524 21.5127 69.6106 21.4663 69.2786 21.3735C68.9515 21.2856 68.6634 21.1465 68.4144 20.9561C68.1604 20.7705 67.9554 20.5337 67.7991 20.2456C67.6478 19.9526 67.5721 19.6084 67.5721 19.2129C67.5721 18.8174 67.6307 18.4634 67.7479 18.1509C67.865 17.8384 68.0262 17.5625 68.2313 17.3232C68.4363 17.084 68.678 16.8789 68.9563 16.708C69.2347 16.5371 69.535 16.3979 69.8572 16.2905C70.1746 16.1831 70.5091 16.105 70.8606 16.0562C71.2122 16.0024 71.5613 15.9756 71.908 15.9756C72.2303 15.9756 72.5306 15.9878 72.8089 16.0122C73.0872 16.0366 73.3338 16.0684 73.5486 16.1074C73.4607 15.7607 73.3411 15.436 73.1897 15.1333C73.0433 14.8306 72.8479 14.5864 72.6038 14.4009C72.3646 14.2104 72.0545 14.1152 71.6736 14.1152C71.4832 14.1152 71.2659 14.1445 71.0218 14.2031C70.7776 14.2568 70.5091 14.3569 70.2161 14.5034C69.9231 14.6499 69.6033 14.8525 69.2566 15.1113C68.91 15.3652 68.5389 15.6924 68.1434 16.0928L67.2571 15.0161C67.7259 14.5767 68.1751 14.2178 68.6048 13.9395C69.0345 13.6611 69.4397 13.4414 69.8206 13.2803C70.1966 13.124 70.5457 13.0166 70.868 12.958C71.1951 12.8994 71.4881 12.8701 71.7469 12.8701C72.201 12.8701 72.6014 12.9458 72.948 13.0972C73.2996 13.2485 73.6097 13.4585 73.8782 13.7271C74.1468 13.9907 74.3714 14.3032 74.5521 14.6646C74.7278 15.0112 74.8768 15.397 74.9988 15.8218C75.116 16.2368 75.199 16.6665 75.2479 17.1108C75.3016 17.5552 75.3284 17.9971 75.3284 18.4365C75.3284 18.9053 75.3016 19.4082 75.2479 19.9453C75.1941 20.4824 75.1111 21.0684 74.9988 21.7031ZM73.7684 18.7954C73.7781 18.5513 73.7854 18.3096 73.7903 18.0703C73.7952 17.8311 73.783 17.582 73.7537 17.3232C73.5145 17.25 73.263 17.1914 72.9993 17.1475C72.7356 17.1035 72.472 17.0815 72.2083 17.0815C71.7688 17.0815 71.3416 17.1328 70.9266 17.2354C70.5164 17.3379 70.1624 17.4868 69.8646 17.6821C69.5667 17.8774 69.3421 18.1167 69.1907 18.3999C69.0442 18.6831 69.0149 19.0054 69.1028 19.3667C69.1712 19.6597 69.303 19.8647 69.4983 19.9819C69.6985 20.0991 69.9378 20.1577 70.2161 20.1577C70.5774 20.1577 70.9827 20.082 71.4319 19.9307C71.8812 19.7744 72.3133 19.5889 72.7283 19.374C73.1482 19.1592 73.4949 18.9663 73.7684 18.7954ZM79.0052 21.3442L77.4305 21.542L77.284 17.4331C77.2742 17.1548 77.2645 16.8569 77.2547 16.5396C77.2449 16.2173 77.2352 15.9146 77.2254 15.6313C77.2156 15.3433 77.2083 15.1162 77.2034 14.9502C77.1839 14.2617 77.1692 13.7441 77.1595 13.3975L78.8294 13.3682L78.8587 15.4775C79.0198 15.1992 79.2029 14.938 79.408 14.6938C79.6131 14.4448 79.8353 14.2251 80.0745 14.0347C80.3138 13.8442 80.5677 13.6904 80.8362 13.5732C81.1097 13.4561 81.3953 13.3877 81.6932 13.3682C82.0691 13.3438 82.3938 13.3755 82.6673 13.4634C82.9407 13.5513 83.1751 13.6733 83.3704 13.8296C83.5657 13.981 83.7269 14.1641 83.8538 14.3789C83.9856 14.5986 84.0857 14.8184 84.1541 15.0381C84.2273 15.2627 84.2786 15.4897 84.3079 15.7192C84.3421 15.9438 84.3641 16.1489 84.3738 16.3345C84.4031 17.1743 84.4104 18.019 84.3958 18.8687C84.3812 19.7183 84.3641 20.5996 84.3445 21.5127L82.8431 21.4614C82.8821 20.6753 82.9163 19.8892 82.9456 19.103C82.9798 18.3169 82.9773 17.5234 82.9383 16.7227C82.9383 16.5518 82.9188 16.3564 82.8797 16.1367C82.8406 15.9121 82.7698 15.6899 82.6673 15.4702C82.594 15.3188 82.4988 15.1846 82.3816 15.0674C82.2645 14.9551 82.1204 14.8696 81.9495 14.811C81.7835 14.7524 81.5882 14.7402 81.3636 14.7744C80.9778 14.833 80.5872 15.1138 80.1917 15.6167C79.8011 16.105 79.3714 16.8447 78.9026 17.8359L78.9539 19.7109C78.9588 19.9453 78.9637 20.1504 78.9686 20.3262C78.9734 20.502 78.9783 20.6509 78.9832 20.7729C78.993 21.0562 79.0003 21.2466 79.0052 21.3442ZM92.7967 14.2983L92.8113 12.8408L94.2469 12.8848L94.2029 21.3003C94.198 21.4565 94.1858 21.6152 94.1663 21.7764C94.1468 21.9375 94.1175 22.0962 94.0784 22.2524C93.9222 22.8921 93.617 23.4756 93.1629 24.0029C92.9334 24.2617 92.6722 24.4937 92.3792 24.6987C92.0813 24.8989 91.7493 25.0625 91.3831 25.1895C91.0169 25.3213 90.6165 25.4043 90.1819 25.4385C89.6058 25.458 89.0491 25.397 88.512 25.2554C88.0335 25.1284 87.5696 24.9062 87.1204 24.5889C86.6712 24.2715 86.3367 23.8296 86.117 23.2632L87.5306 22.6479C87.7015 23.0337 87.9432 23.3315 88.2557 23.5415C88.573 23.7563 88.8953 23.8955 89.2225 23.959C89.5789 24.0371 89.9549 24.0518 90.3504 24.0029C90.5213 23.9688 90.68 23.9248 90.8265 23.8711C90.9778 23.8174 91.117 23.7563 91.2439 23.688C91.493 23.5464 91.7054 23.3877 91.8812 23.2119C92.0618 23.041 92.2059 22.8604 92.3133 22.6699C92.367 22.5723 92.4134 22.4771 92.4524 22.3843C92.4964 22.2915 92.5354 22.2012 92.5696 22.1133C92.6331 21.9375 92.6746 21.7764 92.6941 21.6299C92.7186 21.4883 92.7308 21.3784 92.7308 21.3003V20.3408C92.4378 20.6191 92.1326 20.834 91.8152 20.9854C91.5027 21.1318 91.2122 21.2393 90.9437 21.3076C90.7874 21.3467 90.6312 21.3784 90.4749 21.4028C90.3235 21.4272 90.1722 21.4419 90.0208 21.4468C88.8685 21.4468 87.9163 21.0635 87.1644 20.2969C86.803 19.9307 86.5174 19.4839 86.3074 18.9565C86.1023 18.4292 85.9998 17.8359 85.9998 17.1768C85.9998 16.5127 86.1146 15.9219 86.344 15.4043C86.5784 14.8818 86.8812 14.4424 87.2522 14.0859C87.6282 13.7295 88.0506 13.4585 88.5193 13.2729C88.9881 13.0825 89.4617 12.9873 89.9402 12.9873C90.2723 13.0264 90.6067 13.0996 90.9437 13.207C91.2317 13.2998 91.5418 13.4316 91.8738 13.6025C92.2059 13.7734 92.5135 14.0054 92.7967 14.2983ZM90.0208 20.0405C90.6751 20.0405 91.2635 19.8257 91.7859 19.396C92.0301 19.1958 92.2376 18.9565 92.4085 18.6782C92.5794 18.395 92.6966 18.085 92.7601 17.748V16.7886C92.7063 16.4419 92.5916 16.127 92.4158 15.8438C92.24 15.5557 92.0252 15.3091 91.7713 15.104C91.2439 14.6743 90.6458 14.4595 89.9769 14.4595C89.6253 14.4595 89.3006 14.5327 89.0027 14.6792C88.7098 14.8208 88.4559 15.0186 88.241 15.2725C88.0311 15.5264 87.865 15.8267 87.743 16.1733C87.6209 16.52 87.5599 16.8936 87.5599 17.2939C87.5599 17.6943 87.6209 18.063 87.743 18.3999C87.865 18.7319 88.0359 19.02 88.2557 19.2642C88.4705 19.5034 88.7269 19.6938 89.0247 19.8354C89.3274 19.9722 89.6595 20.0405 90.0208 20.0405ZM96.6199 10.6802L98.1653 10.563L98.3191 16.8032L103.864 10.4971L105.504 10.7095L102.069 14.6279L105.651 20.9414L103.929 21.1978L101.102 15.7192L98.3631 18.854L98.4217 21.0293L96.7884 21.0586L96.6199 10.6802ZM113.086 17.4478C113.086 18.063 112.983 18.6318 112.778 19.1543C112.573 19.6768 112.292 20.1309 111.936 20.5166C111.579 20.9023 111.162 21.2026 110.683 21.4175C110.205 21.6372 109.695 21.7471 109.153 21.7471C108.044 21.7471 107.124 21.3516 106.391 20.5605C106.035 20.1846 105.754 19.7329 105.549 19.2056C105.344 18.6782 105.241 18.0923 105.241 17.4478C105.241 16.7983 105.344 16.21 105.549 15.6826C105.754 15.1504 106.035 14.6963 106.391 14.3203C106.743 13.9443 107.155 13.6538 107.629 13.4487C108.103 13.2437 108.611 13.1411 109.153 13.1411C109.695 13.1411 110.205 13.251 110.683 13.4707C111.162 13.6855 111.579 13.9834 111.936 14.3643C112.292 14.75 112.573 15.2065 112.778 15.7339C112.983 16.2563 113.086 16.8276 113.086 17.4478ZM111.54 17.4331C111.54 17.0815 111.496 16.7251 111.408 16.3638C111.321 16.0024 111.181 15.6802 110.991 15.397C110.8 15.1089 110.554 14.877 110.251 14.7012C109.948 14.5205 109.582 14.4302 109.153 14.4302C108.738 14.4302 108.381 14.5205 108.083 14.7012C107.785 14.877 107.541 15.1089 107.351 15.397C107.16 15.6802 107.021 16.0024 106.933 16.3638C106.845 16.7251 106.801 17.0815 106.801 17.4331C106.801 17.7847 106.848 18.1387 106.941 18.4951C107.038 18.8467 107.185 19.1665 107.38 19.4546C107.575 19.7378 107.82 19.9722 108.113 20.1577C108.41 20.3384 108.757 20.4287 109.153 20.4287C109.568 20.4287 109.924 20.3384 110.222 20.1577C110.525 19.9722 110.774 19.7378 110.969 19.4546C111.164 19.1665 111.308 18.8467 111.401 18.4951C111.494 18.1387 111.54 17.7847 111.54 17.4331ZM121.677 16.3345L120.234 16.8765C120.229 16.4614 120.171 16.1245 120.058 15.8657C119.951 15.6069 119.807 15.4116 119.626 15.2798C119.455 15.1528 119.262 15.0942 119.048 15.104C118.906 15.1284 118.762 15.1846 118.615 15.2725C118.464 15.3652 118.305 15.4873 118.139 15.6387C117.978 15.79 117.817 15.9585 117.656 16.144C117.573 16.2368 117.492 16.332 117.414 16.4297C117.336 16.5273 117.258 16.625 117.18 16.7227C117.029 16.918 116.884 17.1157 116.748 17.3159C116.611 17.5112 116.489 17.6895 116.382 17.8506C116.386 18.0508 116.391 18.2803 116.396 18.5391C116.401 18.793 116.406 19.0444 116.411 19.2935C116.421 19.5376 116.428 19.7451 116.433 19.916C116.443 20.2236 116.452 20.502 116.462 20.751C116.472 20.9951 116.484 21.1929 116.499 21.3442L114.924 21.542L114.778 17.4331C114.768 17.1548 114.758 16.8569 114.748 16.5396C114.738 16.2173 114.729 15.9146 114.719 15.6313C114.709 15.3433 114.702 15.1162 114.697 14.9502C114.677 14.2617 114.663 13.7441 114.653 13.3975L116.323 13.3682C116.328 13.5195 116.33 13.6709 116.33 13.8223C116.33 13.9688 116.333 14.1201 116.338 14.2764C116.338 14.4326 116.338 14.584 116.338 14.7305C116.338 14.8721 116.34 15.0063 116.345 15.1333C116.35 15.2847 116.352 15.436 116.352 15.5874C116.352 15.7339 116.352 15.8779 116.352 16.0195C116.494 15.7949 116.667 15.5483 116.872 15.2798C117.077 15.0112 117.307 14.7573 117.561 14.5181C117.82 14.2788 118.1 14.0713 118.403 13.8955C118.706 13.7148 119.03 13.6025 119.377 13.5586C119.758 13.5391 120.114 13.6221 120.446 13.8076C120.583 13.8857 120.717 13.9907 120.849 14.1226C120.986 14.2495 121.113 14.4131 121.23 14.6133C121.342 14.8184 121.438 15.0625 121.516 15.3457C121.594 15.624 121.648 15.9536 121.677 16.3345ZM126.401 20.3262C126.943 20.3262 127.441 20.165 127.895 19.8428C128.349 19.5156 128.645 19.0615 128.781 18.4805L130.195 18.7661C130.058 19.2104 129.865 19.6133 129.616 19.9746C129.367 20.3359 129.077 20.646 128.745 20.9048C128.413 21.1636 128.047 21.3638 127.646 21.5054C127.251 21.647 126.836 21.7178 126.401 21.7178C125.757 21.7178 125.185 21.6201 124.687 21.4248C124.189 21.2295 123.769 20.9536 123.427 20.5972C122.729 19.8696 122.38 18.8784 122.38 17.6235C122.38 17.0132 122.483 16.4443 122.688 15.917C122.898 15.3848 123.183 14.9233 123.545 14.5327C123.906 14.1421 124.331 13.8345 124.819 13.6099C125.307 13.3853 125.835 13.2729 126.401 13.2729C126.909 13.2729 127.387 13.373 127.837 13.5732C128.286 13.7686 128.684 14.0396 129.03 14.3862C129.377 14.7378 129.663 15.1504 129.887 15.624C130.112 16.0977 130.254 16.6104 130.312 17.1621L123.969 18.1069C124.004 18.4536 124.089 18.7661 124.226 19.0444C124.367 19.3179 124.543 19.5498 124.753 19.7402C125.188 20.1309 125.737 20.3262 126.401 20.3262ZM124.013 16.752L128.423 16.2173L128.379 16.0781C128.193 15.5947 127.937 15.2163 127.61 14.9429C127.287 14.6694 126.884 14.5327 126.401 14.5327C126.196 14.5327 125.971 14.5693 125.727 14.6426C125.483 14.7109 125.246 14.8306 125.017 15.0015C124.787 15.1724 124.58 15.4019 124.394 15.6899C124.214 15.9731 124.087 16.3271 124.013 16.752ZM138.918 21.7031L137.483 21.4614L137.585 20.4287C136.989 20.8096 136.404 21.0854 135.827 21.2563C135.256 21.4272 134.721 21.5127 134.223 21.5127C133.872 21.5127 133.53 21.4663 133.198 21.3735C132.871 21.2856 132.583 21.1465 132.334 20.9561C132.08 20.7705 131.875 20.5337 131.718 20.2456C131.567 19.9526 131.491 19.6084 131.491 19.2129C131.491 18.8174 131.55 18.4634 131.667 18.1509C131.784 17.8384 131.946 17.5625 132.151 17.3232C132.356 17.084 132.597 16.8789 132.876 16.708C133.154 16.5371 133.454 16.3979 133.777 16.2905C134.094 16.1831 134.428 16.105 134.78 16.0562C135.132 16.0024 135.481 15.9756 135.827 15.9756C136.15 15.9756 136.45 15.9878 136.728 16.0122C137.007 16.0366 137.253 16.0684 137.468 16.1074C137.38 15.7607 137.26 15.436 137.109 15.1333C136.963 14.8306 136.767 14.5864 136.523 14.4009C136.284 14.2104 135.974 14.1152 135.593 14.1152C135.403 14.1152 135.185 14.1445 134.941 14.2031C134.697 14.2568 134.428 14.3569 134.135 14.5034C133.842 14.6499 133.523 14.8525 133.176 15.1113C132.829 15.3652 132.458 15.6924 132.063 16.0928L131.176 15.0161C131.645 14.5767 132.094 14.2178 132.524 13.9395C132.954 13.6611 133.359 13.4414 133.74 13.2803C134.116 13.124 134.465 13.0166 134.787 12.958C135.114 12.8994 135.407 12.8701 135.666 12.8701C136.12 12.8701 136.521 12.9458 136.867 13.0972C137.219 13.2485 137.529 13.4585 137.798 13.7271C138.066 13.9907 138.291 14.3032 138.471 14.6646C138.647 15.0112 138.796 15.397 138.918 15.8218C139.035 16.2368 139.118 16.6665 139.167 17.1108C139.221 17.5552 139.248 17.9971 139.248 18.4365C139.248 18.9053 139.221 19.4082 139.167 19.9453C139.113 20.4824 139.03 21.0684 138.918 21.7031ZM137.688 18.7954C137.697 18.5513 137.705 18.3096 137.71 18.0703C137.715 17.8311 137.702 17.582 137.673 17.3232C137.434 17.25 137.182 17.1914 136.919 17.1475C136.655 17.1035 136.391 17.0815 136.128 17.0815C135.688 17.0815 135.261 17.1328 134.846 17.2354C134.436 17.3379 134.082 17.4868 133.784 17.6821C133.486 17.8774 133.261 18.1167 133.11 18.3999C132.964 18.6831 132.934 19.0054 133.022 19.3667C133.091 19.6597 133.222 19.8647 133.418 19.9819C133.618 20.0991 133.857 20.1577 134.135 20.1577C134.497 20.1577 134.902 20.082 135.351 19.9307C135.8 19.7744 136.233 19.5889 136.648 19.374C137.068 19.1592 137.414 18.9663 137.688 18.7954Z" fill="white"/>
<defs>
<linearGradient id="paint0_linear_1_10" x1="15" y1="0" x2="15" y2="30" gradientUnits="userSpaceOnUse">
<stop stop-color="#877EFF"/>
<stop offset="0.461458" stop-color="#685DFF"/>
<stop offset="1" stop-color="#3121FF"/>
</linearGradient>
</defs>
</svg>
